name Walk1.mot
datacolumns 19
datarows 12
range 1.61500000 1.62600000
endheader

                time	   L_ground_force_vx	   L_ground_force_vy	   L_ground_force_vz	   L_ground_force_px	   L_ground_force_py	   L_ground_force_pz	   R_ground_force_vx	   R_ground_force_vy	   R_ground_force_vz	   R_ground_force_px	   R_ground_force_py	   R_ground_force_pz	   L_ground_torque_x	   L_ground_torque_y	   L_ground_torque_z	   R_ground_torque_x	   R_ground_torque_y	   R_ground_torque_z	
          1.61500000	        -28.58457068	        712.29244734	        -50.31726779	          0.40268790	          0.00000000	          0.08076054	          0.00000000	          0.00000000	          0.00000000	          0.00000000	          0.00000000	          0.00000000	          0.00000000	          4.20979671	          0.00000000	          0.00000000	          0.00000000	          0.00000000	
          1.61600000	        -28.35005083	        711.08748292	        -50.10509740	          0.40331795	          0.00000000	          0.08088242	          0.00000000	          0.00000000	          0.00000000	          0.00000000	          0.00000000	          0.00000000	          0.00000000	          4.11368964	          0.00000000	          0.00000000	          0.00000000	          0.00000000	
          1.61700000	        -28.10676281	        709.80520702	        -49.91485326	          0.40394615	          0.00000000	          0.08090866	          0.00000000	          0.00000000	          0.00000000	          0.00000000	          0.00000000	          0.00000000	          0.00000000	          4.01563332	          0.00000000	          0.00000000	          0.00000000	          0.00000000	
          1.61800000	        -27.84606929	        708.42943640	        -49.74311919	          0.40453376	          0.00000000	          0.08085063	          0.00000000	          0.00000000	          0.00000000	          0.00000000	          0.00000000	          0.00000000	          0.00000000	          3.92897486	          0.00000000	          0.00000000	          0.00000000	          0.00000000	
          1.61900000	        -27.57312080	        706.97306008	        -49.57704288	          0.40506170	          0.00000000	          0.08074433	          0.00000000	          0.00000000	          0.00000000	          0.00000000	          0.00000000	          0.00000000	          0.00000000	          3.86296310	          0.00000000	          0.00000000	          0.00000000	          0.00000000	
          1.62000000	        -27.30118906	        705.48685444	        -49.39924809	          0.40552996	          0.00000000	          0.08062896	          0.00000000	          0.00000000	          0.00000000	          0.00000000	          0.00000000	          0.00000000	          0.00000000	          3.81559231	          0.00000000	          0.00000000	          0.00000000	          0.00000000	
          1.62100000	        -27.03967572	        704.04780243	        -49.19580446	          0.40595013	          0.00000000	          0.08053801	          0.00000000	          0.00000000	          0.00000000	          0.00000000	          0.00000000	          0.00000000	          0.00000000	          3.77917888	          0.00000000	          0.00000000	          0.00000000	          0.00000000	
          1.62200000	        -26.79142413	        702.71027603	        -48.96824525	          0.40634303	          0.00000000	          0.08048794	          0.00000000	          0.00000000	          0.00000000	          0.00000000	          0.00000000	          0.00000000	          0.00000000	          3.74998764	          0.00000000	          0.00000000	          0.00000000	          0.00000000	
          1.62300000	        -26.55974094	        701.48314115	        -48.72954906	          0.40673224	          0.00000000	          0.08047848	          0.00000000	          0.00000000	          0.00000000	          0.00000000	          0.00000000	          0.00000000	          0.00000000	          3.72904487	          0.00000000	          0.00000000	          0.00000000	          0.00000000	
          1.62400000	        -26.35440914	        700.34438538	        -48.48508349	          0.40713646	          0.00000000	          0.08050630	          0.00000000	          0.00000000	          0.00000000	          0.00000000	          0.00000000	          0.00000000	          0.00000000	          3.71360526	          0.00000000	          0.00000000	          0.00000000	          0.00000000	
          1.62500000	        -26.18689518	        699.24771074	        -48.22806723	          0.40757462	          0.00000000	          0.08056812	          0.00000000	          0.00000000	          0.00000000	          0.00000000	          0.00000000	          0.00000000	          0.00000000	          3.69232680	          0.00000000	          0.00000000	          0.00000000	          0.00000000	
          1.62600000	        -26.05710379	        698.12788312	        -47.95083244	          0.40806338	          0.00000000	          0.08064705	          0.00000000	          0.00000000	          0.00000000	          0.00000000	          0.00000000	          0.00000000	          0.00000000	          3.65257084	          0.00000000	          0.00000000	          0.00000000	          0.00000000	
